<?xml version="1.0" encoding="UTF-8" standalone="no"?>
<!DOCTYPE svg PUBLIC "-//W3C//DTD SVG 1.1//EN"
 "http://www.w3.org/Graphics/SVG/1.1/DTD/svg11.dtd">
<!-- Generated by graphviz version 3.0.0 (20220226.1711)
 -->
<!-- Pages: 1 -->
<svg width="280pt" height="280pt"
 viewBox="0.00 0.00 280.22 280.43" xmlns="http://www.w3.org/2000/svg" xmlns:xlink="http://www.w3.org/1999/xlink">
<g id="graph0" class="graph" transform="scale(1 1) rotate(0) translate(4 276.43)">
<polygon fill="white" stroke="transparent" points="-4,4 -4,-276.43 276.22,-276.43 276.22,4 -4,4"/>
<!-- Ball X -->
<g id="node1" class="node">
<title>Ball X</title>
<polygon fill="lightgray" stroke="black" points="79.96,-272.43 39.96,-272.43 39.96,-254.43 79.96,-254.43 79.96,-272.43"/>
<text text-anchor="middle" x="59.96" y="-261.23" font-family="Times New Roman,serif" font-size="9.00">Ball X</text>
</g>
<!-- Ball Y -->
<g id="node2" class="node">
<title>Ball Y</title>
<polygon fill="lightgray" stroke="black" points="137.46,-272.43 98.46,-272.43 98.46,-254.43 137.46,-254.43 137.46,-272.43"/>
<text text-anchor="middle" x="117.96" y="-261.23" font-family="Times New Roman,serif" font-size="9.00">Ball Y</text>
</g>
<!-- Paddle Down -->
<g id="node4" class="node">
<title>Paddle Down</title>
<ellipse fill="lightblue" stroke="black" cx="45.96" cy="-172.47" rx="45.92" ry="45.92"/>
<text text-anchor="middle" x="45.96" y="-170.27" font-family="Times New Roman,serif" font-size="9.00">Paddle Down</text>
</g>
<!-- Ball Y&#45;&gt;Paddle Down -->
<g id="edge3" class="edge">
<title>Ball Y&#45;&gt;Paddle Down</title>
<path fill="none" stroke="green" stroke-width="0.59" d="M111.32,-254.22C104.27,-245.51 92.57,-231.06 81.01,-216.77"/>
<polygon fill="green" stroke="green" stroke-width="0.59" points="83.64,-214.46 74.63,-208.89 78.2,-218.86 83.64,-214.46"/>
</g>
<!-- Paddle Up -->
<g id="node6" class="node">
<title>Paddle Up</title>
<ellipse fill="lightblue" stroke="black" cx="148.96" cy="-172.47" rx="38.78" ry="38.78"/>
<text text-anchor="middle" x="148.96" y="-170.27" font-family="Times New Roman,serif" font-size="9.00">Paddle Up</text>
</g>
<!-- Ball Y&#45;&gt;Paddle Up -->
<g id="edge5" class="edge">
<title>Ball Y&#45;&gt;Paddle Up</title>
<path fill="none" stroke="red" stroke-width="0.51" d="M120.82,-254.22C123.67,-246.06 128.28,-232.84 132.94,-219.44"/>
<polygon fill="red" stroke="red" stroke-width="0.51" points="136.35,-220.31 136.33,-209.72 129.73,-218.01 136.35,-220.31"/>
</g>
<!-- 212 -->
<g id="node7" class="node">
<title>212</title>
<ellipse fill="white" stroke="black" cx="226.96" cy="-172.47" rx="21.43" ry="21.43"/>
<text text-anchor="middle" x="226.96" y="-170.27" font-family="Times New Roman,serif" font-size="9.00">212</text>
</g>
<!-- Ball Y&#45;&gt;212 -->
<g id="edge1" class="edge">
<title>Ball Y&#45;&gt;212</title>
<path fill="none" stroke="green" stroke-width="0.24" stroke-dasharray="1,5" d="M137.46,-254.71C154.54,-247.26 179.31,-234.72 196.96,-218.43 202.65,-213.18 207.79,-206.65 212.14,-200.2"/>
<polygon fill="green" stroke="green" stroke-width="0.24" points="215.19,-201.92 217.56,-191.59 209.27,-198.19 215.19,-201.92"/>
</g>
<!-- Paddle Y -->
<g id="node3" class="node">
<title>Paddle Y</title>
<polygon fill="lightgray" stroke="black" points="204.46,-272.43 155.46,-272.43 155.46,-254.43 204.46,-254.43 204.46,-272.43"/>
<text text-anchor="middle" x="179.96" y="-261.23" font-family="Times New Roman,serif" font-size="9.00">Paddle Y</text>
</g>
<!-- Paddle Y&#45;&gt;Paddle Down -->
<g id="edge4" class="edge">
<title>Paddle Y&#45;&gt;Paddle Down</title>
<path fill="none" stroke="red" stroke-width="0.57" d="M163.42,-254.31C147.08,-246.04 121.61,-232.46 100.96,-218.43 96.8,-215.6 92.56,-212.53 88.38,-209.37"/>
<polygon fill="red" stroke="red" stroke-width="0.57" points="90.5,-206.58 80.46,-203.21 86.21,-212.11 90.5,-206.58"/>
</g>
<!-- Paddle Y&#45;&gt;Paddle Up -->
<g id="edge7" class="edge">
<title>Paddle Y&#45;&gt;Paddle Up</title>
<path fill="none" stroke="green" stroke-width="0.55" d="M177.1,-254.22C174.25,-246.06 169.65,-232.84 164.98,-219.44"/>
<polygon fill="green" stroke="green" stroke-width="0.55" points="168.19,-218.01 161.59,-209.72 161.58,-220.31 168.19,-218.01"/>
</g>
<!-- Paddle Y&#45;&gt;212 -->
<g id="edge6" class="edge">
<title>Paddle Y&#45;&gt;212</title>
<path fill="none" stroke="red" stroke-width="0.66" d="M184.3,-254.22C190.71,-242.08 203.03,-218.78 212.78,-200.31"/>
<polygon fill="red" stroke="red" stroke-width="0.66" points="215.89,-201.92 217.46,-191.45 209.7,-198.65 215.89,-201.92"/>
</g>
<!-- Do not move -->
<g id="node5" class="node">
<title>Do not move</title>
<ellipse fill="lightblue" stroke="black" cx="226.96" cy="-45.25" rx="45.01" ry="45.01"/>
<text text-anchor="middle" x="226.96" y="-43.05" font-family="Times New Roman,serif" font-size="9.00">Do not move</text>
</g>
<!-- 212&#45;&gt;Do not move -->
<g id="edge2" class="edge">
<title>212&#45;&gt;Do not move</title>
<path fill="none" stroke="red" stroke-width="0.39" d="M226.96,-151.07C226.96,-137.4 226.96,-118.7 226.96,-100.88"/>
<polygon fill="red" stroke="red" stroke-width="0.39" points="230.46,-100.54 226.96,-90.54 223.46,-100.54 230.46,-100.54"/>
</g>
</g>
</svg>
