<?xml version="1.0" encoding="UTF-8" standalone="no"?>
<!DOCTYPE svg PUBLIC "-//W3C//DTD SVG 1.1//EN"
 "http://www.w3.org/Graphics/SVG/1.1/DTD/svg11.dtd">
<!-- Generated by graphviz version 3.0.0 (20220226.1711)
 -->
<!-- Pages: 1 -->
<svg width="738pt" height="268pt"
 viewBox="0.00 0.00 738.00 267.71" xmlns="http://www.w3.org/2000/svg" xmlns:xlink="http://www.w3.org/1999/xlink">
<g id="graph0" class="graph" transform="scale(1 1) rotate(0) translate(4 263.71)">
<polygon fill="white" stroke="transparent" points="-4,4 -4,-263.71 734,-263.71 734,4 -4,4"/>
<!-- Ball X -->
<g id="node1" class="node">
<title>Ball X</title>
<polygon fill="lightgray" stroke="black" points="117.5,-259.71 77.5,-259.71 77.5,-241.71 117.5,-241.71 117.5,-259.71"/>
<text text-anchor="middle" x="97.5" y="-248.51" font-family="Times New Roman,serif" font-size="9.00">Ball X</text>
</g>
<!-- Do not move -->
<g id="node13" class="node">
<title>Do not move</title>
<ellipse fill="lightblue" stroke="black" cx="164.5" cy="-159.74" rx="45.01" ry="45.01"/>
<text text-anchor="middle" x="164.5" y="-157.54" font-family="Times New Roman,serif" font-size="9.00">Do not move</text>
</g>
<!-- Ball X&#45;&gt;Do not move -->
<g id="edge5" class="edge">
<title>Ball X&#45;&gt;Do not move</title>
<path fill="none" stroke="green" stroke-width="0.39" stroke-dasharray="1,5" d="M103.68,-241.5C110.13,-232.94 120.75,-218.84 131.32,-204.79"/>
<polygon fill="green" stroke="green" stroke-width="0.39" points="134.29,-206.67 137.51,-196.58 128.7,-202.46 134.29,-206.67"/>
</g>
<!-- Ball Y -->
<g id="node2" class="node">
<title>Ball Y</title>
<polygon fill="lightgray" stroke="black" points="576,-259.71 537,-259.71 537,-241.71 576,-241.71 576,-259.71"/>
<text text-anchor="middle" x="556.5" y="-248.51" font-family="Times New Roman,serif" font-size="9.00">Ball Y</text>
</g>
<!-- Paddle Down -->
<g id="node12" class="node">
<title>Paddle Down</title>
<ellipse fill="lightblue" stroke="black" cx="485.5" cy="-159.74" rx="45.92" ry="45.92"/>
<text text-anchor="middle" x="485.5" y="-157.54" font-family="Times New Roman,serif" font-size="9.00">Paddle Down</text>
</g>
<!-- Ball Y&#45;&gt;Paddle Down -->
<g id="edge3" class="edge">
<title>Ball Y&#45;&gt;Paddle Down</title>
<path fill="none" stroke="green" stroke-width="0.26" stroke-dasharray="1,5" d="M549.95,-241.5C543,-232.79 531.46,-218.33 520.06,-204.04"/>
<polygon fill="green" stroke="green" stroke-width="0.26" points="522.74,-201.79 513.77,-196.16 517.27,-206.16 522.74,-201.79"/>
</g>
<!-- Paddle Up -->
<g id="node14" class="node">
<title>Paddle Up</title>
<ellipse fill="lightblue" stroke="black" cx="363.5" cy="-38.89" rx="38.78" ry="38.78"/>
<text text-anchor="middle" x="363.5" y="-36.69" font-family="Times New Roman,serif" font-size="9.00">Paddle Up</text>
</g>
<!-- Ball Y&#45;&gt;Paddle Up -->
<g id="edge7" class="edge">
<title>Ball Y&#45;&gt;Paddle Up</title>
<path fill="none" stroke="red" stroke-width="1.62" d="M558.1,-241.65C562.15,-218.94 570.41,-153.43 540.5,-113.78 510,-73.34 453.25,-54.87 412.22,-46.54"/>
<polygon fill="red" stroke="red" stroke-width="1.62" points="412.63,-43.06 402.15,-44.64 411.33,-49.94 412.63,-43.06"/>
</g>
<!-- Paddle Y -->
<g id="node3" class="node">
<title>Paddle Y</title>
<polygon fill="lightgray" stroke="black" points="422,-168.74 373,-168.74 373,-150.74 422,-150.74 422,-168.74"/>
<text text-anchor="middle" x="397.5" y="-157.54" font-family="Times New Roman,serif" font-size="9.00">Paddle Y</text>
</g>
<!-- Paddle Y&#45;&gt;Paddle Up -->
<g id="edge8" class="edge">
<title>Paddle Y&#45;&gt;Paddle Up</title>
<path fill="none" stroke="green" stroke-width="0.91" d="M395.16,-150.57C391.38,-137.35 383.64,-110.29 376.76,-86.23"/>
<polygon fill="green" stroke="green" stroke-width="0.91" points="380.09,-85.16 373.98,-76.51 373.36,-87.09 380.09,-85.16"/>
</g>
<!-- Ball[t &#45;2] X -->
<g id="node4" class="node">
<title>Ball[t &#45;2] X</title>
<polygon fill="lightgray" stroke="black" points="271,-259.71 212,-259.71 212,-241.71 271,-241.71 271,-259.71"/>
<text text-anchor="middle" x="241.5" y="-248.51" font-family="Times New Roman,serif" font-size="9.00">Ball[t &#45;2] X</text>
</g>
<!-- Ball[t &#45;2] X&#45;&gt;Do not move -->
<g id="edge10" class="edge">
<title>Ball[t &#45;2] X&#45;&gt;Do not move</title>
<path fill="none" stroke="green" stroke-width="0.28" stroke-dasharray="1,5" d="M234.39,-241.5C226.53,-232.41 213.26,-217.08 200.39,-202.21"/>
<polygon fill="green" stroke="green" stroke-width="0.28" points="202.91,-199.77 193.72,-194.5 197.62,-204.35 202.91,-199.77"/>
</g>
<!-- Ball[t &#45;2] X&#45;&gt;Paddle Up -->
<g id="edge1" class="edge">
<title>Ball[t &#45;2] X&#45;&gt;Paddle Up</title>
<path fill="none" stroke="green" stroke-width="0.16" d="M242.44,-241.42C245.28,-219.18 255.31,-156.95 282.5,-113.78 293.29,-96.66 309.08,-81.01 323.87,-68.57"/>
<polygon fill="green" stroke="green" stroke-width="0.16" points="326.39,-71.03 331.94,-62 321.97,-65.6 326.39,-71.03"/>
</g>
<!-- Ball[t &#45;2] Y -->
<g id="node5" class="node">
<title>Ball[t &#45;2] Y</title>
<polygon fill="lightgray" stroke="black" points="652.5,-259.71 594.5,-259.71 594.5,-241.71 652.5,-241.71 652.5,-259.71"/>
<text text-anchor="middle" x="623.5" y="-248.51" font-family="Times New Roman,serif" font-size="9.00">Ball[t &#45;2] Y</text>
</g>
<!-- Ball[t &#45;3] X -->
<g id="node6" class="node">
<title>Ball[t &#45;3] X</title>
<polygon fill="lightgray" stroke="black" points="730,-259.71 671,-259.71 671,-241.71 730,-241.71 730,-259.71"/>
<text text-anchor="middle" x="700.5" y="-248.51" font-family="Times New Roman,serif" font-size="9.00">Ball[t &#45;3] X</text>
</g>
<!-- Ball[t &#45;3] Y -->
<g id="node7" class="node">
<title>Ball[t &#45;3] Y</title>
<polygon fill="lightgray" stroke="black" points="193.5,-259.71 135.5,-259.71 135.5,-241.71 193.5,-241.71 193.5,-259.71"/>
<text text-anchor="middle" x="164.5" y="-248.51" font-family="Times New Roman,serif" font-size="9.00">Ball[t &#45;3] Y</text>
</g>
<!-- Ball[t &#45;3] Y&#45;&gt;Do not move -->
<g id="edge11" class="edge">
<title>Ball[t &#45;3] Y&#45;&gt;Do not move</title>
<path fill="none" stroke="red" stroke-width="0.69" d="M164.5,-241.5C164.5,-235.17 164.5,-225.82 164.5,-215.71"/>
<polygon fill="red" stroke="red" stroke-width="0.69" points="168,-215.42 164.5,-205.42 161,-215.42 168,-215.42"/>
</g>
<!-- Ball[t &#45;4] X -->
<g id="node8" class="node">
<title>Ball[t &#45;4] X</title>
<polygon fill="lightgray" stroke="black" points="59,-259.71 0,-259.71 0,-241.71 59,-241.71 59,-259.71"/>
<text text-anchor="middle" x="29.5" y="-248.51" font-family="Times New Roman,serif" font-size="9.00">Ball[t &#45;4] X</text>
</g>
<!-- Ball[t &#45;4] X&#45;&gt;Do not move -->
<g id="edge9" class="edge">
<title>Ball[t &#45;4] X&#45;&gt;Do not move</title>
<path fill="none" stroke="green" stroke-width="0.12" stroke-dasharray="1,5" d="M41.96,-241.5C59.22,-230.12 91.33,-208.96 118.35,-191.16"/>
<polygon fill="green" stroke="green" stroke-width="0.12" points="120.49,-193.93 126.92,-185.51 116.64,-188.09 120.49,-193.93"/>
</g>
<!-- Ball[t &#45;4] Y -->
<g id="node9" class="node">
<title>Ball[t &#45;4] Y</title>
<polygon fill="lightgray" stroke="black" points="645.5,-168.74 587.5,-168.74 587.5,-150.74 645.5,-150.74 645.5,-168.74"/>
<text text-anchor="middle" x="616.5" y="-157.54" font-family="Times New Roman,serif" font-size="9.00">Ball[t &#45;4] Y</text>
</g>
<!-- Ball[t &#45;4] Y&#45;&gt;Paddle Up -->
<g id="edge2" class="edge">
<title>Ball[t &#45;4] Y&#45;&gt;Paddle Up</title>
<path fill="none" stroke="green" stroke-width="0.76" d="M610.69,-150.65C603.16,-140.69 589.11,-123.85 573.5,-113.78 522.88,-81.12 456.06,-60.84 411.53,-49.97"/>
<polygon fill="green" stroke="green" stroke-width="0.76" points="412.08,-46.51 401.54,-47.6 410.46,-53.32 412.08,-46.51"/>
</g>
<!-- Ball[t &#45;5] X -->
<g id="node10" class="node">
<title>Ball[t &#45;5] X</title>
<polygon fill="lightgray" stroke="black" points="515,-259.71 456,-259.71 456,-241.71 515,-241.71 515,-259.71"/>
<text text-anchor="middle" x="485.5" y="-248.51" font-family="Times New Roman,serif" font-size="9.00">Ball[t &#45;5] X</text>
</g>
<!-- Ball[t &#45;5] X&#45;&gt;Paddle Down -->
<g id="edge4" class="edge">
<title>Ball[t &#45;5] X&#45;&gt;Paddle Down</title>
<path fill="none" stroke="green" stroke-width="0.66" d="M485.5,-241.5C485.5,-235.24 485.5,-226.01 485.5,-216.02"/>
<polygon fill="green" stroke="green" stroke-width="0.66" points="489,-215.84 485.5,-205.84 482,-215.84 489,-215.84"/>
</g>
<!-- Ball[t &#45;5] Y -->
<g id="node11" class="node">
<title>Ball[t &#45;5] Y</title>
<polygon fill="lightgray" stroke="black" points="353.5,-259.71 295.5,-259.71 295.5,-241.71 353.5,-241.71 353.5,-259.71"/>
<text text-anchor="middle" x="324.5" y="-248.51" font-family="Times New Roman,serif" font-size="9.00">Ball[t &#45;5] Y</text>
</g>
<!-- Ball[t &#45;5] Y&#45;&gt;Paddle Down -->
<g id="edge12" class="edge">
<title>Ball[t &#45;5] Y&#45;&gt;Paddle Down</title>
<path fill="none" stroke="red" stroke-width="1.11" d="M350.18,-241.62C372.53,-234.02 405.35,-221.46 431.5,-205.71 435.59,-203.24 439.7,-200.47 443.72,-197.56"/>
<polygon fill="red" stroke="red" stroke-width="1.11" points="445.97,-200.25 451.81,-191.41 441.73,-194.67 445.97,-200.25"/>
</g>
<!-- Ball[t &#45;5] Y&#45;&gt;Do not move -->
<g id="edge6" class="edge">
<title>Ball[t &#45;5] Y&#45;&gt;Do not move</title>
<path fill="none" stroke="red" stroke-width="0.57" stroke-dasharray="1,5" d="M310.02,-241.65C288.29,-229.57 246.25,-206.2 212.92,-187.67"/>
<polygon fill="red" stroke="red" stroke-width="0.57" points="214.22,-184.38 203.78,-182.58 210.82,-190.5 214.22,-184.38"/>
</g>
<!-- Ball[t &#45;5] Y&#45;&gt;Paddle Up -->
<g id="edge13" class="edge">
<title>Ball[t &#45;5] Y&#45;&gt;Paddle Up</title>
<path fill="none" stroke="red" stroke-width="0.12" stroke-dasharray="1,5" d="M317.35,-241.65C310.48,-233.33 300.55,-219.62 296.5,-205.71 285.08,-166.48 281.79,-151.9 296.5,-113.78 302.69,-97.73 314.18,-83 325.91,-70.99"/>
<polygon fill="red" stroke="red" stroke-width="0.12" points="328.48,-73.37 333.2,-63.88 323.6,-68.36 328.48,-73.37"/>
</g>
<!-- 5055 -->
<g id="node15" class="node">
<title>5055</title>
<ellipse fill="white" stroke="black" cx="330.5" cy="-159.74" rx="25" ry="25"/>
<text text-anchor="middle" x="330.5" y="-157.54" font-family="Times New Roman,serif" font-size="9.00">5055</text>
</g>
<!-- Ball[t &#45;5] Y&#45;&gt;5055 -->
<g id="edge14" class="edge">
<title>Ball[t &#45;5] Y&#45;&gt;5055</title>
<path fill="none" stroke="green" stroke-width="0.33" d="M325.05,-241.5C325.77,-230.88 327.06,-211.74 328.21,-194.75"/>
<polygon fill="green" stroke="green" stroke-width="0.33" points="331.71,-194.77 328.89,-184.55 324.73,-194.3 331.71,-194.77"/>
</g>
<!-- 5055&#45;&gt;Paddle Up -->
<g id="edge15" class="edge">
<title>5055&#45;&gt;Paddle Up</title>
<path fill="none" stroke="green" stroke-width="0.22" d="M336.94,-135.55C340.83,-121.54 345.92,-103.19 350.61,-86.32"/>
<polygon fill="green" stroke="green" stroke-width="0.22" points="354.01,-87.17 353.31,-76.6 347.26,-85.3 354.01,-87.17"/>
</g>
</g>
</svg>
