<?xml version="1.0" encoding="UTF-8" standalone="no"?>
<!DOCTYPE svg PUBLIC "-//W3C//DTD SVG 1.1//EN"
 "http://www.w3.org/Graphics/SVG/1.1/DTD/svg11.dtd">
<!-- Generated by graphviz version 3.0.0 (20220226.1711)
 -->
<!-- Pages: 1 -->
<svg width="677pt" height="366pt"
 viewBox="0.00 0.00 676.62 365.93" xmlns="http://www.w3.org/2000/svg" xmlns:xlink="http://www.w3.org/1999/xlink">
<g id="graph0" class="graph" transform="scale(1 1) rotate(0) translate(4 361.93)">
<polygon fill="white" stroke="transparent" points="-4,4 -4,-361.93 672.62,-361.93 672.62,4 -4,4"/>
<!-- Ball X -->
<g id="node1" class="node">
<title>Ball X</title>
<polygon fill="lightgray" stroke="black" points="323.62,-288.18 283.62,-288.18 283.62,-270.18 323.62,-270.18 323.62,-288.18"/>
<text text-anchor="middle" x="303.62" y="-276.98" font-family="Times New Roman,serif" font-size="9.00">Ball X</text>
</g>
<!-- Do not move -->
<g id="node13" class="node">
<title>Do not move</title>
<ellipse fill="lightblue" stroke="black" cx="231.62" cy="-173.18" rx="45.01" ry="45.01"/>
<text text-anchor="middle" x="231.62" y="-170.98" font-family="Times New Roman,serif" font-size="9.00">Do not move</text>
</g>
<!-- Ball X&#45;&gt;Do not move -->
<g id="edge16" class="edge">
<title>Ball X&#45;&gt;Do not move</title>
<path fill="none" stroke="red" stroke-width="0.22" d="M297.97,-270.02C290.35,-259.01 276.18,-238.55 262.9,-219.36"/>
<polygon fill="red" stroke="red" stroke-width="0.22" points="265.65,-217.19 257.08,-210.96 259.89,-221.17 265.65,-217.19"/>
</g>
<!-- Ball Y -->
<g id="node2" class="node">
<title>Ball Y</title>
<polygon fill="lightgray" stroke="black" points="334.12,-182.18 295.12,-182.18 295.12,-164.18 334.12,-164.18 334.12,-182.18"/>
<text text-anchor="middle" x="314.62" y="-170.98" font-family="Times New Roman,serif" font-size="9.00">Ball Y</text>
</g>
<!-- Paddle Down -->
<g id="node12" class="node">
<title>Paddle Down</title>
<ellipse fill="lightblue" stroke="black" cx="376.62" cy="-45.96" rx="45.92" ry="45.92"/>
<text text-anchor="middle" x="376.62" y="-43.76" font-family="Times New Roman,serif" font-size="9.00">Paddle Down</text>
</g>
<!-- Ball Y&#45;&gt;Paddle Down -->
<g id="edge17" class="edge">
<title>Ball Y&#45;&gt;Paddle Down</title>
<path fill="none" stroke="red" stroke-width="0.42" stroke-dasharray="1,5" d="M318.69,-163.96C325.43,-150.35 339.42,-122.09 351.97,-96.75"/>
<polygon fill="red" stroke="red" stroke-width="0.42" points="355.2,-98.1 356.51,-87.58 348.93,-94.99 355.2,-98.1"/>
</g>
<!-- Paddle Y -->
<g id="node3" class="node">
<title>Paddle Y</title>
<polygon fill="lightgray" stroke="black" points="401.12,-182.18 352.12,-182.18 352.12,-164.18 401.12,-164.18 401.12,-182.18"/>
<text text-anchor="middle" x="376.62" y="-170.98" font-family="Times New Roman,serif" font-size="9.00">Paddle Y</text>
</g>
<!-- Paddle Y&#45;&gt;Paddle Down -->
<g id="edge13" class="edge">
<title>Paddle Y&#45;&gt;Paddle Down</title>
<path fill="none" stroke="red" stroke-width="0.91" d="M376.62,-163.96C376.62,-151.3 376.62,-125.97 376.62,-102.11"/>
<polygon fill="red" stroke="red" stroke-width="0.91" points="380.12,-102.01 376.62,-92.01 373.12,-102.01 380.12,-102.01"/>
</g>
<!-- Ball[t &#45;2] X -->
<g id="node4" class="node">
<title>Ball[t &#45;2] X</title>
<polygon fill="lightgray" stroke="black" points="73.12,-288.18 14.12,-288.18 14.12,-270.18 73.12,-270.18 73.12,-288.18"/>
<text text-anchor="middle" x="43.62" y="-276.98" font-family="Times New Roman,serif" font-size="9.00">Ball[t &#45;2] X</text>
</g>
<!-- Ball[t &#45;2] X&#45;&gt;Paddle Down -->
<g id="edge2" class="edge">
<title>Ball[t &#45;2] X&#45;&gt;Paddle Down</title>
<path fill="none" stroke="green" stroke-width="0.45" stroke-dasharray="1,5" d="M37.91,-269.95C21.66,-245.4 -21.49,-171.72 13.62,-127.92 51.47,-80.7 228.56,-59.22 320.65,-51.11"/>
<polygon fill="green" stroke="green" stroke-width="0.45" points="320.97,-54.59 330.63,-50.25 320.37,-47.62 320.97,-54.59"/>
</g>
<!-- Ball[t &#45;2] X&#45;&gt;Do not move -->
<g id="edge4" class="edge">
<title>Ball[t &#45;2] X&#45;&gt;Do not move</title>
<path fill="none" stroke="green" stroke-width="0.18" d="M66.84,-270C94.32,-259.84 140.99,-241.04 177.62,-218.43 181.72,-215.9 185.85,-213.09 189.91,-210.14"/>
<polygon fill="green" stroke="green" stroke-width="0.18" points="192.22,-212.78 198.08,-203.95 187.99,-207.2 192.22,-212.78"/>
</g>
<!-- Paddle Up -->
<g id="node14" class="node">
<title>Paddle Up</title>
<ellipse fill="lightblue" stroke="black" cx="129.62" cy="-173.18" rx="38.78" ry="38.78"/>
<text text-anchor="middle" x="129.62" y="-170.98" font-family="Times New Roman,serif" font-size="9.00">Paddle Up</text>
</g>
<!-- Ball[t &#45;2] X&#45;&gt;Paddle Up -->
<g id="edge7" class="edge">
<title>Ball[t &#45;2] X&#45;&gt;Paddle Up</title>
<path fill="none" stroke="green" stroke-width="0.13" d="M50.37,-270.02C60.69,-257.54 81.05,-232.92 98.54,-211.76"/>
<polygon fill="green" stroke="green" stroke-width="0.13" points="101.41,-213.79 105.08,-203.85 96.01,-209.33 101.41,-213.79"/>
</g>
<!-- 2452 -->
<g id="node16" class="node">
<title>2452</title>
<ellipse fill="white" stroke="black" cx="47.62" cy="-173.18" rx="25" ry="25"/>
<text text-anchor="middle" x="47.62" y="-170.98" font-family="Times New Roman,serif" font-size="9.00">2452</text>
</g>
<!-- Ball[t &#45;2] X&#45;&gt;2452 -->
<g id="edge18" class="edge">
<title>Ball[t &#45;2] X&#45;&gt;2452</title>
<path fill="none" stroke="green" stroke-width="0.58" d="M43.93,-270.02C44.44,-256.85 45.46,-230.18 46.31,-208.31"/>
<polygon fill="green" stroke="green" stroke-width="0.58" points="49.81,-208.17 46.7,-198.04 42.82,-207.9 49.81,-208.17"/>
</g>
<!-- Ball[t &#45;2] Y -->
<g id="node5" class="node">
<title>Ball[t &#45;2] Y</title>
<polygon fill="lightgray" stroke="black" points="352.62,-357.93 294.62,-357.93 294.62,-339.93 352.62,-339.93 352.62,-357.93"/>
<text text-anchor="middle" x="323.62" y="-346.73" font-family="Times New Roman,serif" font-size="9.00">Ball[t &#45;2] Y</text>
</g>
<!-- Ball[t &#45;2] Y&#45;&gt;Paddle Up -->
<g id="edge10" class="edge">
<title>Ball[t &#45;2] Y&#45;&gt;Paddle Up</title>
<path fill="none" stroke="green" stroke-width="0.23" stroke-dasharray="1,5" d="M294.39,-345.98C243.53,-341.92 142.12,-330.6 120.62,-303.93 101.81,-280.61 104.92,-246.6 112.28,-219.25"/>
<polygon fill="green" stroke="green" stroke-width="0.23" points="115.68,-220.09 115.15,-209.51 108.96,-218.11 115.68,-220.09"/>
</g>
<!-- 1450 -->
<g id="node15" class="node">
<title>1450</title>
<ellipse fill="white" stroke="black" cx="563.62" cy="-279.18" rx="25" ry="25"/>
<text text-anchor="middle" x="563.62" y="-276.98" font-family="Times New Roman,serif" font-size="9.00">1450</text>
</g>
<!-- Ball[t &#45;2] Y&#45;&gt;1450 -->
<g id="edge1" class="edge">
<title>Ball[t &#45;2] Y&#45;&gt;1450</title>
<path fill="none" stroke="green" stroke-width="0.28" stroke-dasharray="1,5" d="M352.09,-339.89C396.63,-327.32 482.58,-303.06 530.06,-289.66"/>
<polygon fill="green" stroke="green" stroke-width="0.28" points="531.18,-292.98 539.86,-286.89 529.28,-286.24 531.18,-292.98"/>
</g>
<!-- Ball[t &#45;3] X -->
<g id="node6" class="node">
<title>Ball[t &#45;3] X</title>
<polygon fill="lightgray" stroke="black" points="265.12,-288.18 206.12,-288.18 206.12,-270.18 265.12,-270.18 265.12,-288.18"/>
<text text-anchor="middle" x="235.62" y="-276.98" font-family="Times New Roman,serif" font-size="9.00">Ball[t &#45;3] X</text>
</g>
<!-- Ball[t &#45;3] X&#45;&gt;Do not move -->
<g id="edge15" class="edge">
<title>Ball[t &#45;3] X&#45;&gt;Do not move</title>
<path fill="none" stroke="green" stroke-width="0.24" d="M235.3,-270.02C234.95,-260.82 234.34,-245.03 233.72,-228.89"/>
<polygon fill="green" stroke="green" stroke-width="0.24" points="237.22,-228.71 233.34,-218.85 230.22,-228.98 237.22,-228.71"/>
</g>
<!-- Ball[t &#45;3] X&#45;&gt;Paddle Up -->
<g id="edge11" class="edge">
<title>Ball[t &#45;3] X&#45;&gt;Paddle Up</title>
<path fill="none" stroke="green" stroke-width="0.91" d="M227.3,-270.02C213.88,-256.86 186.71,-230.2 164.42,-208.33"/>
<polygon fill="green" stroke="green" stroke-width="0.91" points="166.67,-205.63 157.08,-201.12 161.77,-210.62 166.67,-205.63"/>
</g>
<!-- Ball[t &#45;3] Y -->
<g id="node7" class="node">
<title>Ball[t &#45;3] Y</title>
<polygon fill="lightgray" stroke="black" points="668.62,-357.93 610.62,-357.93 610.62,-339.93 668.62,-339.93 668.62,-357.93"/>
<text text-anchor="middle" x="639.62" y="-346.73" font-family="Times New Roman,serif" font-size="9.00">Ball[t &#45;3] Y</text>
</g>
<!-- Ball[t &#45;4] X -->
<g id="node8" class="node">
<title>Ball[t &#45;4] X</title>
<polygon fill="lightgray" stroke="black" points="459.12,-288.18 400.12,-288.18 400.12,-270.18 459.12,-270.18 459.12,-288.18"/>
<text text-anchor="middle" x="429.62" y="-276.98" font-family="Times New Roman,serif" font-size="9.00">Ball[t &#45;4] X</text>
</g>
<!-- Ball[t &#45;4] X&#45;&gt;Paddle Down -->
<g id="edge8" class="edge">
<title>Ball[t &#45;4] X&#45;&gt;Paddle Down</title>
<path fill="none" stroke="red" stroke-width="0.45" stroke-dasharray="1,5" d="M429.36,-269.89C428.47,-246.93 424.77,-180.75 410.62,-127.92 407.9,-117.77 404.18,-107.21 400.19,-97.2"/>
<polygon fill="red" stroke="red" stroke-width="0.45" points="403.36,-95.71 396.31,-87.81 396.89,-98.38 403.36,-95.71"/>
</g>
<!-- Ball[t &#45;4] X&#45;&gt;Do not move -->
<g id="edge12" class="edge">
<title>Ball[t &#45;4] X&#45;&gt;Do not move</title>
<path fill="none" stroke="red" stroke-width="0.68" d="M404.58,-270.14C375.21,-260.16 325.58,-241.61 286.62,-218.43 282.19,-215.8 277.73,-212.84 273.37,-209.72"/>
<polygon fill="red" stroke="red" stroke-width="0.68" points="275.26,-206.77 265.15,-203.6 271.08,-212.38 275.26,-206.77"/>
</g>
<!-- 3478 -->
<g id="node17" class="node">
<title>3478</title>
<ellipse fill="white" stroke="black" cx="482.62" cy="-173.18" rx="25" ry="25"/>
<text text-anchor="middle" x="482.62" y="-170.98" font-family="Times New Roman,serif" font-size="9.00">3478</text>
</g>
<!-- Ball[t &#45;4] X&#45;&gt;3478 -->
<g id="edge20" class="edge">
<title>Ball[t &#45;4] X&#45;&gt;3478</title>
<path fill="none" stroke="red" stroke-width="0.15" d="M433.78,-270.02C440.87,-256.11 455.63,-227.13 467.09,-204.66"/>
<polygon fill="red" stroke="red" stroke-width="0.15" points="470.34,-205.99 471.76,-195.49 464.1,-202.81 470.34,-205.99"/>
</g>
<!-- Ball[t &#45;4] Y -->
<g id="node9" class="node">
<title>Ball[t &#45;4] Y</title>
<polygon fill="lightgray" stroke="black" points="592.62,-357.93 534.62,-357.93 534.62,-339.93 592.62,-339.93 592.62,-357.93"/>
<text text-anchor="middle" x="563.62" y="-346.73" font-family="Times New Roman,serif" font-size="9.00">Ball[t &#45;4] Y</text>
</g>
<!-- Ball[t &#45;4] Y&#45;&gt;1450 -->
<g id="edge3" class="edge">
<title>Ball[t &#45;4] Y&#45;&gt;1450</title>
<path fill="none" stroke="green" stroke-width="0.21" stroke-dasharray="1,5" d="M563.62,-339.89C563.62,-333.46 563.62,-323.96 563.62,-314.42"/>
<polygon fill="green" stroke="green" stroke-width="0.21" points="567.12,-314.2 563.62,-304.2 560.12,-314.2 567.12,-314.2"/>
</g>
<!-- Ball[t &#45;5] X -->
<g id="node10" class="node">
<title>Ball[t &#45;5] X</title>
<polygon fill="lightgray" stroke="black" points="584.12,-182.18 525.12,-182.18 525.12,-164.18 584.12,-164.18 584.12,-182.18"/>
<text text-anchor="middle" x="554.62" y="-170.98" font-family="Times New Roman,serif" font-size="9.00">Ball[t &#45;5] X</text>
</g>
<!-- Ball[t &#45;5] X&#45;&gt;Paddle Down -->
<g id="edge14" class="edge">
<title>Ball[t &#45;5] X&#45;&gt;Paddle Down</title>
<path fill="none" stroke="red" stroke-width="0.23" d="M548.88,-163.94C541.98,-154.45 529.71,-138.79 516.62,-127.92 489.44,-105.37 455.18,-85.43 427.35,-70.99"/>
<polygon fill="red" stroke="red" stroke-width="0.23" points="428.67,-67.73 418.17,-66.3 425.49,-73.97 428.67,-67.73"/>
</g>
<!-- 4062 -->
<g id="node19" class="node">
<title>4062</title>
<ellipse fill="white" stroke="black" cx="554.62" cy="-45.96" rx="25" ry="25"/>
<text text-anchor="middle" x="554.62" y="-43.76" font-family="Times New Roman,serif" font-size="9.00">4062</text>
</g>
<!-- Ball[t &#45;5] X&#45;&gt;4062 -->
<g id="edge22" class="edge">
<title>Ball[t &#45;5] X&#45;&gt;4062</title>
<path fill="none" stroke="red" stroke-width="0.36" d="M554.62,-163.96C554.62,-147.46 554.62,-109.46 554.62,-81.22"/>
<polygon fill="red" stroke="red" stroke-width="0.36" points="558.12,-80.94 554.62,-70.94 551.12,-80.94 558.12,-80.94"/>
</g>
<!-- Ball[t &#45;5] Y -->
<g id="node11" class="node">
<title>Ball[t &#45;5] Y</title>
<polygon fill="lightgray" stroke="black" points="187.62,-288.18 129.62,-288.18 129.62,-270.18 187.62,-270.18 187.62,-288.18"/>
<text text-anchor="middle" x="158.62" y="-276.98" font-family="Times New Roman,serif" font-size="9.00">Ball[t &#45;5] Y</text>
</g>
<!-- Ball[t &#45;5] Y&#45;&gt;Paddle Up -->
<g id="edge9" class="edge">
<title>Ball[t &#45;5] Y&#45;&gt;Paddle Up</title>
<path fill="none" stroke="red" stroke-width="0.59" d="M156.34,-270.02C153.34,-259.26 147.82,-239.47 142.58,-220.65"/>
<polygon fill="red" stroke="red" stroke-width="0.59" points="145.93,-219.65 139.87,-210.96 139.19,-221.53 145.93,-219.65"/>
</g>
<!-- 1450&#45;&gt;Do not move -->
<g id="edge6" class="edge">
<title>1450&#45;&gt;Do not move</title>
<path fill="none" stroke="red" stroke-width="0.43" stroke-dasharray="1,5" d="M539.88,-271.9C520.71,-266.91 493.01,-259.89 468.62,-254.43 388.15,-236.43 361.35,-253.29 286.62,-218.43 281.88,-216.22 277.19,-213.52 272.67,-210.55"/>
<polygon fill="red" stroke="red" stroke-width="0.43" points="274.4,-207.49 264.22,-204.57 270.36,-213.2 274.4,-207.49"/>
</g>
<!-- 1450&#45;&gt;1450 -->
<g id="edge5" class="edge">
<title>1450&#45;&gt;1450</title>
<path fill="none" stroke="green" stroke-width="0.1" stroke-dasharray="1,5" d="M585.17,-291.48C596.32,-293.38 606.37,-289.28 606.37,-279.18 606.37,-272.4 601.83,-268.32 595.48,-266.95"/>
<polygon fill="green" stroke="green" stroke-width="0.1" points="595.2,-263.45 585.17,-266.88 595.15,-270.45 595.2,-263.45"/>
</g>
<!-- 4250 -->
<g id="node18" class="node">
<title>4250</title>
<ellipse fill="white" stroke="black" cx="626.62" cy="-173.18" rx="25" ry="25"/>
<text text-anchor="middle" x="626.62" y="-170.98" font-family="Times New Roman,serif" font-size="9.00">4250</text>
</g>
<!-- 1450&#45;&gt;4250 -->
<g id="edge23" class="edge">
<title>1450&#45;&gt;4250</title>
<path fill="none" stroke="green" stroke-width="0.12" d="M571.61,-255.62C580.08,-239.44 593.22,-217.59 604.65,-200.6"/>
<polygon fill="green" stroke="green" stroke-width="0.12" points="607.64,-202.43 610.44,-192.21 601.88,-198.45 607.64,-202.43"/>
</g>
<!-- 2452&#45;&gt;Paddle Down -->
<g id="edge19" class="edge">
<title>2452&#45;&gt;Paddle Down</title>
<path fill="none" stroke="green" stroke-width="0.24" d="M59.55,-151.22C65.25,-142.88 72.77,-133.87 81.62,-127.92 155,-78.6 257.7,-59.19 320.55,-51.64"/>
<polygon fill="green" stroke="green" stroke-width="0.24" points="321.12,-55.1 330.66,-50.49 320.33,-48.15 321.12,-55.1"/>
</g>
<!-- 3478&#45;&gt;Paddle Down -->
<g id="edge21" class="edge">
<title>3478&#45;&gt;Paddle Down</title>
<path fill="none" stroke="green" stroke-width="0.21" d="M466.98,-153.7C452.72,-136.86 431.12,-111.34 412.61,-89.48"/>
<polygon fill="green" stroke="green" stroke-width="0.21" points="415.09,-86.99 405.96,-81.62 409.75,-91.51 415.09,-86.99"/>
</g>
<!-- 4250&#45;&gt;1450 -->
<g id="edge24" class="edge">
<title>4250&#45;&gt;1450</title>
<path fill="none" stroke="red" stroke-width="0.41" d="M618.6,-196.8C610.13,-212.95 597.04,-234.73 585.64,-251.69"/>
<polygon fill="red" stroke="red" stroke-width="0.41" points="582.65,-249.85 579.86,-260.07 588.42,-253.82 582.65,-249.85"/>
</g>
</g>
</svg>
